<svg xmlns="http://www.w3.org/2000/svg" width="50px" height="30px" viewBox="0 0 50 30">
	<ellipse  fill="#2ed6A1" cx="24.874" cy="14.686" rx="2.186" ry="2.186"/>
	<rect fill="#2ed6A1" y="13.055" width="3.262" height="3.262"/>
	<path fill="#2ed6A1" d="M47.49,12.518l1.255,2.15L50,16.854h-5.021l1.256-2.186L47.49,12.518z"/>
	<rect fill="#2ed6A1" x="5.432" y="14.13" width="14.229" height="1.111"/>
	<rect fill="#2ed6A1" x="29.811" y="14.13" width="13.621" height="1.111"/>
	<path fill="none" stroke="#2971ff" stroke-miterlimit="10" d="M38.995,5.305c-0.093-1.196-0.601-2.325-1.435-3.188C34.049-1.397,25.52,1.435,18.53,8.423c-5.162,5.162-8.029,11.111-7.813,15.305"/>
	<path fill="none" stroke="#2971ff" stroke-miterlimit="10" d="M12.186,27.454c3.514,3.514,12.008,0.682,18.996-6.343c3.514-3.513,5.985-7.419,7.133-10.861"/>
	<path fill="none" stroke="#2971ff" stroke-miterlimit="10" d="M10.86,4.695c-0.896,4.192,2.042,10.788,7.67,16.415c6.99,6.988,15.519,9.82,18.996,6.344c3.478-3.477,0.682-12.006-6.344-18.995C24.803,2.007,17.098-0.896,13.19,1.362"/>
	<ellipse fill="#2ed6A1" cx="13.189" cy="1.326" rx="1.326" ry="1.326"/>
	<ellipse fill="#2ed6A1" cx="38.312" cy="10.286" rx="1.326" ry="1.326"/>
	<ellipse fill="#2ed6A1" cx="10.681" cy="23.726" rx="1.326" ry="1.326"/>
</svg>
