<svg xmlns="http://www.w3.org/2000/svg" width="63.7px" height="50.9px" viewBox="0 0 63.7 50.9">
<polygon fill="#2971ff" stroke="#2971ff" stroke-miterlimit="10" points="49.012,0.989 28.43,0.988 14.709,28.432 28.43,28.432 21.57,49.014 49.012,21.572 34.961,21.572 "/>
<circle fill="#2ed6A1" opacity="0.6" cx="1.708" cy="1.708" r="1.708"/>
<circle fill="#2ed6A1" opacity="0.6" cx="1.708" cy="13.57" r="1.708"/>
<circle fill="#2ed6A1" opacity="0.6" cx="1.708" cy="25.433" r="1.708"/>
<circle fill="#2ed6A1" opacity="0.6" cx="1.708" cy="37.293" r="1.709"/>
<circle fill="#2ed6A1" opacity="0.6" cx="1.708" cy="49.154" r="1.708"/>
<circle fill="#2ed6A1" opacity="0.6" cx="13.569" cy="1.708" r="1.708"/>
<circle fill="#2ed6A1" opacity="0.6" cx="13.569" cy="13.57" r="1.708"/>
<circle fill="#2ed6A1" opacity="0.6" cx="13.569" cy="25.433" r="1.708"/>
<circle fill="#2ed6A1" opacity="0.6" cx="13.569" cy="37.293" r="1.709"/>
<circle fill="#2ed6A1" opacity="0.6" cx="13.569" cy="49.154" r="1.708"/>
<circle fill="#2ed6A1" opacity="0.6" cx="25.43" cy="1.708" r="1.708"/>
<circle fill="#2ed6A1" opacity="0.6" cx="25.43" cy="13.57" r="1.708"/>
<circle fill="#2ed6A1" opacity="0.6" cx="25.43" cy="25.433" r="1.708"/>
<circle fill="#2ed6A1" opacity="0.6" cx="25.43" cy="37.293" r="1.709"/>
<circle fill="#2ed6A1" opacity="0.6" cx="25.43" cy="49.154" r="1.708"/>
<circle fill="#2ed6A1" opacity="0.6" cx="37.291" cy="1.708" r="1.708"/>
<circle fill="#2ed6A1" opacity="0.6" cx="37.291" cy="13.57" r="1.708"/>
<circle fill="#2ed6A1" opacity="0.6" cx="37.291" cy="25.433" r="1.708"/>
<circle fill="#2ed6A1" opacity="0.6" cx="37.291" cy="37.293" r="1.709"/>
<circle fill="#2ed6A1" opacity="0.6" cx="37.291" cy="49.154" r="1.709"/>
<circle fill="#2ed6A1" opacity="0.6" cx="49.155" cy="1.708" r="1.708"/>
<circle fill="#2ed6A1" opacity="0.6" cx="49.155" cy="13.57" r="1.708"/>
<circle fill="#2ed6A1" opacity="0.6" cx="49.155" cy="25.433" r="1.708"/>
<circle fill="#2ed6A1" opacity="0.6" cx="49.155" cy="37.293" r="1.709"/>
<circle fill="#2ed6A1" opacity="0.6" cx="49.155" cy="49.154" r="1.708"/>
<circle fill="#2ed6A1" opacity="0.6" cx="61.019" cy="1.708" r="1.708"/>
<circle fill="#2ed6A1" opacity="0.6" cx="61.019" cy="13.57" r="1.708"/>
<circle fill="#2ed6A1" opacity="0.6" cx="61.019" cy="25.433" r="1.708"/>
<circle fill="#2ed6A1" opacity="0.6" cx="61.019" cy="37.293" r="1.709"/>
<circle fill="#2ed6A1" opacity="0.6" cx="61.019" cy="49.154" r="1.708"/>
</svg>
