<svg xmlns="http://www.w3.org/2000/svg" width="57px" height="50px" viewBox="0 0 57 50">
	<path fill="#2ed6A1" d="M4.02,49.842h44.619v-0.028l1.254,0.014l7.156-10.678H46.358v5.274h-9.951c-2.94-4.346-8.847-5.485-13.193-2.544c-1.003,0.678-1.866,1.542-2.545,2.544h-9.95V39.15H7.153L0,49.856L4.02,49.842z"/>
	<path fill="#2971ff" d="M20.688,44.476c2.94-4.346,8.847-5.485,13.193-2.545c1.003,0.679,1.867,1.542,2.545,2.545h9.95V0h-8.325v0.058c-0.003,5.243-4.256,9.491-9.5,9.488c-5.239-0.003-9.485-4.25-9.488-9.488V0h-8.339v44.476H20.688z M28.543,14.282c5.889,0.001,10.662,4.776,10.661,10.666c-0.001,5.889-4.776,10.662-10.666,10.66c-5.887-0.001-10.659-4.774-10.66-10.661c0.001-5.889,4.776-10.663,10.665-10.663V14.282z"/>
	<path fill="#2ed6A1" d="M28.541,14.242c5.91,0,10.7,4.791,10.7,10.701c0,5.909-4.791,10.7-10.7,10.7c-5.909,0-10.7-4.791-10.7-10.7C17.84,19.033,22.631,14.242,28.541,14.242L28.541,14.242z"/>
</svg>
