<svg xmlns="http://www.w3.org/2000/svg" width="360.041px" height="278.064px" viewBox="0 0 360.041 278.064">
	<path fill="#2ed6A1" d="M158.276,172.704h89.065c33.137,0,60-26.862,60-60c0-33.137-26.863-60-60-60H218.96
		l-60.685-52.68h89.064c62.244,0.002,112.703,50.463,112.699,112.708c-0.002,45.847-27.773,87.125-70.242,104.396l70.225,60.936
		h-80.4L158.276,172.704z"/>
	<path fill="#2971ff" d="M201.765,105.372h-89.064c-33.138,0-60,26.863-60,60c0,33.138,26.863,60,60,60h28.367l60.685,52.68h-89.052
		C50.455,278.05-0.003,227.59,0,165.345c0.001-45.848,27.775-87.124,70.244-104.396L0.02,0h80.399L201.765,105.372z"/>
</svg>
