<svg xmlns="http://www.w3.org/2000/svg" width="66.6px" height="50px" viewBox="0 0 66.6 50">
<path fill="#2971ff" d="M49.957,0h-6.34v8.352h6.34c4.609,0.007,8.345,3.742,8.352,8.351c0.01,4.569-3.687,8.281-8.256,8.292c-0.032,0-0.064,0-0.096,0H33.315v16.703h8.352v-8.413h8.351c9.191-0.017,16.629-7.481,16.612-16.673C66.613,7.421,59.148-0.017,49.957,0z"/>
<circle fill="#2ed6A1" cx="37.46" cy="4.146" r="4.146"/>
<path fill="#2971ff" d="M33.254,8.424h-8.29v8.352h-8.352C7.438,16.776,0,24.214,0,33.388S7.438,50,16.612,50h6.34v-8.291h-6.34C12,41.755,8.223,38.053,8.177,33.44s3.656-8.389,8.268-8.435c0.056,0,0.111,0,0.167,0h16.703V8.424H33.254z"/>
<path fill="#2ed6A1" d="M29.169,41.65c-2.289,0.002-4.143,1.856-4.146,4.146l0,0c-0.032,2.289,1.797,4.171,4.086,4.204c2.29,0.033,4.171-1.797,4.204-4.086c0-0.039,0-0.078,0-0.117l0,0c0.019-2.271-1.807-4.127-4.077-4.146C29.215,41.65,29.192,41.65,29.169,41.65z"/>
</svg>
