<svg xmlns="http://www.w3.org/2000/svg" width="17.5px" height="15px" viewBox="0 0 17.5 15">
	<path fill="#2ed6A1" d="M1.5,2.499h13.498V1.5c0-0.825-0.676-1.5-1.5-1.5H1.5C0.76,0,0.141,0.542,0.021,1.25C0.141,1.956,0.76,2.499,1.5,2.499z"/>
	<path fill="#2971ff" d="M16,2.499h-1h-0.002H1.5c-0.74,0-1.359-0.542-1.479-1.249l0,0H0.02C0.018,1.268,0.016,1.286,0.013,1.304c-0.001,0.005-0.001,0.01-0.001,0.015C0.01,1.334,0.007,1.35,0.006,1.366c0,0.01-0.002,0.02-0.002,0.029C0.002,1.407,0.002,1.419,0.001,1.431C0,1.454,0,1.477,0,1.5v2.499v6.976v2.498c0,0.826,0.674,1.5,1.5,1.5H16c0.824,0,1.5-0.674,1.5-1.5v-1.609c-1.727,0-3.126-1.4-3.126-3.125c0-1.726,1.399-3.125,3.126-3.125V3.999C17.5,3.174,16.824,2.499,16,2.499z"/>
	<path fill="#2ed6A1" d="M14.374,8.737c0,1.727,1.399,3.125,3.126,3.125v-0.08v-1.25V6.862v-1.25C15.773,5.612,14.374,7.011,14.374,8.737z"/>
</svg>
