<svg xmlns="http://www.w3.org/2000/svg" width="15.3px" height="17.5px" viewBox="0 0 15.3 17.5">
	<path fill="#2971ff" d="M0.016,1.204L0.016,1.204C0.015,1.213,0.015,1.221,0.014,1.229C0.013,1.24,0.008,1.251,0.008,1.261C0.006,1.281,0,1.302,0,1.321v8.285v6.567c0,0.722,0.602,1.326,1.322,1.326h13.979v-15.3H6.558v6.543l-1.64-1.093L3.279,8.742V2.199H1.322c-0.058,0-0.114-0.006-0.17-0.014c-0.016,0.001-0.032,0-0.049,0C0.538,2.186,0.072,1.755,0.016,1.204z"/>
	<path fill="#2ed6A1" d="M3.279,2.199v6.543l1.639-1.093l1.641,1.093V2.199h8.742h0.012l-1.094-2.187h-1.311H1.322c-0.018,0-0.035-0.001-0.053,0C1.215,0.005,1.16,0,1.103,0C0.499,0,0.011,0.488,0.011,1.092c0,0.038,0.002,0.075,0.005,0.111c0.056,0.552,0.521,0.981,1.087,0.981c0.017,0,0.033,0.002,0.049,0.001c0.056,0.008,0.112,0.014,0.17,0.014H3.279z"/>
</svg>
